<?xml version="1.0" encoding="UTF-8"?>
<svg id="Layer_2" xmlns="http://www.w3.org/2000/svg" viewBox="0 0 320.06 248.67">
  <defs>
    <style>
      .cls-1 {
        fill: #e4ac94;
      }

      .cls-2 {
        fill: #661b18;
      }

      .cls-3 {
        fill: #e3a190;
      }

      .cls-4 {
        fill: #d67b69;
      }

      .cls-5 {
        fill: #7f2819;
      }

      .cls-6 {
        fill: #2c2c2c;
      }

      .cls-7 {
        fill: #fbbfa7;
      }
    </style>
  </defs>
  <g id="Layer_1-2" data-name="Layer_1">
    <g>
      <path class="cls-7" d="M36.11,141.45c2.42,16.07-3.59,30.87-13.41,33.05S2.95,165.44.54,149.38c-2.42-16.07,3.59-30.87,13.41-33.05s19.75,9.06,22.17,25.13Z"/>
      <path class="cls-7" d="M319.64,150.74c-2.13,16.13-11.85,27.64-21.71,25.72s-16.13-16.56-14-32.69c2.13-16.13,11.85-27.64,21.71-25.72,9.86,1.93,16.13,16.56,14,32.69Z"/>
      <path class="cls-5" d="M301.41,137.83c-1.06,66.19-59.86,110.23-137.98,110.23S20.68,203.98,18.52,137.83C14.52,15.68,96.01,0,159.96,0c68.91,0,143.66,0,141.44,137.83Z"/>
      <path class="cls-2" d="M301.43,150.59c-.52,58.53-87.82,117.93-185.98,91.7-21.28-5.68,49.76-33.21,48.71-91.7-1.94-108.01,60.14-88.95,91.17-88.95,8.36,0,18.88-18.64,22.8-23.69,2.03-2.61,24.11,21.23,23.3,112.64Z"/>
      <path class="cls-7" d="M297.88,141.02c0,30-60.53,70.18-105.36,85.7-10.24,3.55-8.14-19.07-18.45-18.41-7.69.49-12.38,0-19.19,0-5.82,0-6.3,19.28-12.41,18.38-9.66-1.42-19.56-3.89-29.33-7.21-46.78-15.88-90.56-51.04-90.56-82.1,0-18.38,48.34-69.14,74.18-79.02,21.11-8.07,39.03,20.52,63.21,19.75,17.16-.54,41.98-23.78,55.6-24.14,22.29-.59,82.32,45.39,82.32,87.04Z"/>
      <path class="cls-1" d="M216.24,147.25c37.81-23.75,69.17-41.35,71.58-38.05,5.74,7.87,13.84,26.06,8.64,41.89-5.99,18.22-27.72,35.92-48.31,47.93-31.76,18.53-54.95,31.6-60.38,27.17-2-1.63-2.87-4.41-4.48-7.45-9.94-18.72-4.86-47.74,32.95-71.49Z"/>
      <ellipse class="cls-6" cx="120.46" cy="117.77" rx="17.02" ry="22.9"/>
      <ellipse class="cls-6" cx="206.82" cy="117.77" rx="17.02" ry="22.9"/>
      <path class="cls-4" d="M156.35,124.51c2.58-6.77,12.13-6.85,14.83-.13l4.9,12.19,6.49,15.32c2.24,5.29-1.68,11.13-7.42,11.07l-11.65-.13-11.13.17c-5.87.09-9.82-5.99-7.34-11.31l5.27-11.36c.08-.17.15-.34.22-.51l5.84-15.3Z"/>
      <path class="cls-3" d="M162.08,150.4c-1.25,4.12-8.48,8.78-13.51,7.79s1.56-7.35,4.09-15.69c1.12-3.7,5.97-19.12,8.1-21.49,2.67-2.97,2.67,3.5,3.13,6.66.82,5.72-1.08,20.34-1.81,22.73Z"/>
      <polygon class="cls-6" points="251.56 112.35 206.82 78.61 211.54 69.34 255.33 104.96 251.56 112.35"/>
      <polygon class="cls-6" points="77.16 109.21 120.26 82.18 116.15 72.48 73.88 101.48 77.16 109.21"/>
      <g>
        <path class="cls-5" d="M109.86,203.03c0,4.5,19.85-9.83,57.31-9.83s54.68,15.2,54.68,10.7,5.68-25.62-46.8-26.9c-.66-.02-6.32,2.73-6.98,2.9-.92.23-3.3.62-5.86-.12-1.49-.43-6.82-3.12-7.36-3.12-60.54.33-44.99,21.87-44.99,26.37Z"/>
        <path class="cls-2" d="M110.64,204.17c0,2.2,19.12-9.08,56.58-9.08s53.9,11.85,53.9,9.65,6.49-19.46-45.99-20.09c-.66,0-6.26,2.17-6.92,2.25-.92.11-3.28.53-5.85.16-1.49-.21-7.22-2.8-7.76-2.8-60.54.16-43.96,17.7-43.96,19.9Z"/>
      </g>
    </g>
  </g>
</svg>