<?xml version="1.0" encoding="UTF-8"?>
<svg id="Layer_2" xmlns="http://www.w3.org/2000/svg" viewBox="0 0 237.04 326.03">
  <defs>
    <style>
      .cls-1 {
        fill: #fcbe91;
      }

      .cls-2 {
        fill: #111011;
      }

      .cls-3 {
        fill: #fff;
      }

      .cls-4 {
        fill: #e6805c;
      }

      .cls-5 {
        fill: #f89c72;
      }

      .cls-6 {
        fill: #f58157;
      }

      .cls-7 {
        fill: #df5c38;
      }

      .cls-8 {
        fill: #f26558;
      }
    </style>
  </defs>
  <g id="Layer_1-2" data-name="Layer_1">
    <g>
      <ellipse class="cls-6" cx="221.1" cy="163.9" rx="30.66" ry="14.58" transform="translate(9.14 339.46) rotate(-76.18)"/>
      <ellipse class="cls-7" cx="220.51" cy="163.53" rx="18.13" ry="10.61" transform="translate(-.46 326.44) rotate(-72.96)"/>
      <ellipse class="cls-6" cx="15.37" cy="163.53" rx="14.58" ry="30.66" transform="translate(-29.2 5.44) rotate(-10.37)"/>
      <ellipse class="cls-7" cx="15.37" cy="161.62" rx="10.61" ry="18.13" transform="translate(-28.85 5.41) rotate(-10.37)"/>
      <ellipse class="cls-2" cx="118.08" cy="52.24" rx="96.58" ry="32.43"/>
      <rect class="cls-2" x="18.38" y="36.62" width="202.72" height="157.79" rx="12" ry="12"/>
      <rect class="cls-4" x="36" y="41.86" width="180.38" height="270.77" rx="85.02" ry="85.02"/>
      <rect class="cls-1" x="23.23" y="55.26" width="180.38" height="270.77" rx="85.02" ry="85.02"/>
      <rect class="cls-5" x="27.44" y="49.13" width="180.38" height="270.77" rx="85.02" ry="85.02"/>
      <path class="cls-4" d="M86.04,56.03c0,12.8,26.29,32.17,57.06,32.17s49.02-2.52,49.02-15.32-25.52-26.04-56.3-26.04-49.79-3.61-49.79,9.19Z"/>
      <polygon class="cls-8" points="116.13 160.03 128.62 198.77 139.88 231.86 116.02 231.52 92.16 231.98 102.91 203.14 116.13 160.03"/>
      <path class="cls-2" d="M185.59,75.33c0,5.52-42.1,12.56-59.22,11.41-25.84-1.74-59.57-25.95-59.57-41.7s53.14-21.37,79.56-21.37,39.23,43.79,39.23,51.67Z"/>
      <path class="cls-2" d="M85.99,72.72c8.36,16.19,37.1,24.98,33.75,26.71s-37.52-4.26-45.88-20.45-12.42-30.71-9.07-32.44,12.84,9.99,21.2,26.18Z"/>
      <path class="cls-2" d="M70.96,74.5c1.3,10.79,13.8,21.9,11.88,22.13s-17.55-10.5-18.85-21.29c-1.3-10.79-.8-19.72,1.13-19.96s4.55,8.32,5.85,19.11Z"/>
      <path class="cls-2" d="M77.95,16.58c-7.71,7.66-8.79,24.34-10.16,22.97s-2.5-20.3,5.21-27.95S88.06-1.15,89.43.22s-3.77,8.7-11.48,16.36Z"/>
      <rect class="cls-2" x="55.17" y="111.45" width="35.95" height="12.02" rx="4.07" ry="4.07"/>
      <rect class="cls-2" x="143.92" y="112.02" width="35.95" height="12.02" rx="4.07" ry="4.07"/>
      <circle class="cls-2" cx="73.17" cy="142.87" r="7.68"/>
      <circle class="cls-2" cx="161.9" cy="143.68" r="7.68"/>
      <circle class="cls-3" cx="157.15" cy="143.68" r=".9"/>
      <circle class="cls-3" cx="78.29" cy="143.14" r=".9"/>
      <path d="M155.88,247.25c0,3.99-21.05,10.07-42.46,10.07s-37.71-6.09-37.71-10.07,17.36,3.83,38.77,3.83,41.4-7.82,41.4-3.83Z"/>
    </g>
  </g>
</svg>